<svg xmlns="http://www.w3.org/2000/svg" width="1000" height="710" viewBox="0 0 1000 710">
<rect width="1000" height="710" fill="#f8fafc"/>
<defs><marker id="a" viewBox="0 0 10 10" refX="9" refY="5" markerWidth="7" markerHeight="7" orient="auto-start-reverse"><path d="M0 0 L10 5 L0 10" fill="#334155"/></marker></defs>
<path d="M460 85 V115" fill="none" stroke="#334155" stroke-width="2" marker-end="url(#a)"/>
<path d="M460 185 V220" fill="none" stroke="#334155" stroke-width="2" marker-end="url(#a)"/>
<path d="M460 290 V330" fill="none" stroke="#334155" stroke-width="2" marker-end="url(#a)"/>
<path d="M620 255 H690" fill="none" stroke="#334155" stroke-width="2" marker-end="url(#a)"/>
<path d="M830 290 V365 H620" fill="none" stroke="#334155" stroke-width="2" marker-end="url(#a)"/>
<path d="M350 400 L185 455" fill="none" stroke="#334155" stroke-width="2" marker-end="url(#a)"/>
<path d="M185 525 V570" fill="none" stroke="#334155" stroke-width="2" marker-end="url(#a)"/>
<path d="M20 605 H5 V150 H300" fill="none" stroke="#334155" stroke-width="2" marker-end="url(#a)"/>
<path d="M540 400 L645 455" fill="none" stroke="#334155" stroke-width="2" marker-end="url(#a)"/>
<rect x="300" y="20" width="320" height="65" rx="10" fill="#e0f2fe" stroke="#0369a1" stroke-width="2"/>
<text x="460.0" y="47" text-anchor="middle" font-family="sans-serif" font-size="14" fill="#0f172a">User / UI / Evaluation harness</text>
<rect x="300" y="115" width="320" height="70" rx="10" fill="#e0f2fe" stroke="#0369a1" stroke-width="2"/>
<text x="460.0" y="142" text-anchor="middle" font-family="sans-serif" font-size="14" fill="#0f172a">Single agent: up to 5 decisions</text>
<text x="460.0" y="162" text-anchor="middle" font-family="sans-serif" font-size="14" fill="#0f172a">Original question + bounded evidence</text>
<rect x="300" y="220" width="320" height="70" rx="10" fill="#e0f2fe" stroke="#0369a1" stroke-width="2"/>
<text x="460.0" y="247" text-anchor="middle" font-family="sans-serif" font-size="14" fill="#0f172a">Shared Groq budget and retry</text>
<text x="460.0" y="267" text-anchor="middle" font-family="sans-serif" font-size="14" fill="#0f172a">6000 estimated tokens / 61 seconds</text>
<rect x="690" y="220" width="280" height="70" rx="10" fill="#e0f2fe" stroke="#0369a1" stroke-width="2"/>
<text x="830.0" y="247" text-anchor="middle" font-family="sans-serif" font-size="14" fill="#0f172a">OpenRouter fallback</text>
<text x="830.0" y="267" text-anchor="middle" font-family="sans-serif" font-size="14" fill="#0f172a">Tool-compatible provider route</text>
<rect x="300" y="330" width="320" height="70" rx="10" fill="#e0f2fe" stroke="#0369a1" stroke-width="2"/>
<text x="460.0" y="357" text-anchor="middle" font-family="sans-serif" font-size="14" fill="#0f172a">Model chooses next action</text>
<text x="460.0" y="377" text-anchor="middle" font-family="sans-serif" font-size="14" fill="#0f172a">Decision 5: answer / clarify only</text>
<rect x="20" y="455" width="330" height="70" rx="10" fill="#e0f2fe" stroke="#0369a1" stroke-width="2"/>
<text x="185.0" y="482" text-anchor="middle" font-family="sans-serif" font-size="14" fill="#0f172a">Validate + execute tool</text>
<text x="185.0" y="502" text-anchor="middle" font-family="sans-serif" font-size="14" fill="#0f172a">Knowledge / web / calculator / datetime</text>
<rect x="20" y="570" width="330" height="70" rx="10" fill="#e0f2fe" stroke="#0369a1" stroke-width="2"/>
<text x="185.0" y="597" text-anchor="middle" font-family="sans-serif" font-size="14" fill="#0f172a">Bound evidence + preserve errors</text>
<text x="185.0" y="617" text-anchor="middle" font-family="sans-serif" font-size="14" fill="#0f172a">Compact above 6000 characters</text>
<rect x="465" y="455" width="360" height="70" rx="10" fill="#e0f2fe" stroke="#0369a1" stroke-width="2"/>
<text x="645.0" y="482" text-anchor="middle" font-family="sans-serif" font-size="14" fill="#0f172a">Answer / clarification / explicit failure</text>
<text x="645.0" y="502" text-anchor="middle" font-family="sans-serif" font-size="14" fill="#0f172a">Trace + sources + tokens + stop state</text>
<text x="500" y="686" text-anchor="middle" font-family="sans-serif" font-size="14">One agent; alternative providers. Keys share organization quota. Single-worker pacing.</text></svg>